<svg width="104" height="25" viewBox="0 0 104 25" fill="none" xmlns="http://www.w3.org/2000/svg">
<path d="M0.188143 17.5947C-0.212422 16.9223 0.0642039 16.0509 0.779291 15.7326L7.11277 12.9137C7.49559 12.7433 7.93691 12.7669 8.29939 12.9771L11.9184 15.0759C12.279 15.285 12.5181 15.6536 12.5622 16.0681L13.3011 23.0274C13.3835 23.8035 12.7716 24.4782 11.9913 24.4717L9.06359 24.4477C8.27571 24.4412 7.6728 23.744 7.7801 22.9634L8.36554 18.7044C8.41357 18.355 8.24509 18.0114 7.93949 17.8354C7.63349 17.6592 7.25116 17.6862 6.97305 17.9038L3.63888 20.5124C3.01903 20.9974 2.11427 20.8282 1.7115 20.1521L0.188143 17.5947Z" fill="white"/>
<path fill-rule="evenodd" clip-rule="evenodd" d="M13.9419 14.8855L19.5387 19.0024C19.8556 19.2355 20.3051 19.1377 20.4965 18.7939L21.9469 16.1885C22.1379 15.8454 21.9851 15.4125 21.6211 15.2652L17.6556 13.661C17.0813 13.4287 16.7054 12.8711 16.7054 12.2516C16.7054 11.636 17.0766 11.0812 17.6456 10.8463L21.625 9.20364C21.9872 9.05411 22.1372 8.6215 21.9452 8.27986L20.5 5.70806C20.3078 5.36602 19.8596 5.2694 19.5435 5.50187L13.9419 9.62222C13.7745 9.74532 13.6757 9.94067 13.6757 10.1484V14.3593C13.6757 14.567 13.7745 14.7624 13.9419 14.8855ZM13.5548 15.4116C13.2201 15.1655 13.0225 14.7748 13.0225 14.3593V10.1484C13.0225 9.73293 13.2202 9.34222 13.5548 9.09604L19.1565 4.97569C19.7886 4.51073 20.6851 4.70399 21.0695 5.38807L22.5147 7.95987C22.8986 8.64314 22.5987 9.50836 21.8742 9.80742L17.8949 11.4501C17.5703 11.5841 17.3586 11.9005 17.3586 12.2516C17.3586 12.605 17.573 12.923 17.9006 13.0555L21.8661 14.6597C22.5941 14.9542 22.8996 15.82 22.5176 16.5062L21.0672 19.1116C20.6845 19.7991 19.7855 19.9948 19.1517 19.5286L13.5548 15.4116Z" fill="#2DEBFC"/>
<path d="M11.9185 9.38375C12.2791 9.17465 12.5182 8.80605 12.5622 8.39158L13.2999 1.44435C13.3827 0.664014 12.7638 -0.0127738 11.9792 0.000183035L9.05117 0.0485359C8.26771 0.0614737 7.6718 0.756401 7.77851 1.53267L8.36542 5.80245C8.41357 6.15273 8.24461 6.49724 7.93818 6.67362C7.63275 6.84942 7.25137 6.82327 6.97279 6.60742L3.59287 3.98858C2.97152 3.50715 2.0688 3.67945 1.66846 4.35588L0.182533 6.86653C-0.215377 7.53885 0.0618353 8.40778 0.775578 8.72545L7.11286 11.546C7.49568 11.7164 7.937 11.6928 8.29948 11.4826L11.9185 9.38375Z" fill="#2C85FC"/>
<path d="M42.847 11.1421V19.6445H46.0105V8.80908H41.4034V11.1421H42.847Z" fill="white"/>
<path d="M42.7479 7.28674C43.038 7.58985 43.4795 7.74143 44.0726 7.74143C44.6661 7.74143 45.1008 7.58985 45.3774 7.28674C45.6678 6.97026 45.8124 6.57481 45.8124 6.10039C45.8124 5.61261 45.6678 5.21713 45.3774 4.91404C45.1008 4.59769 44.6661 4.43945 44.0726 4.43945C43.4795 4.43945 43.038 4.59769 42.7479 4.91404C42.4713 5.21713 42.3328 5.61261 42.3328 6.10039C42.3328 6.57481 42.4713 6.97026 42.7479 7.28674Z" fill="white"/>
<path d="M67.4443 19.5939C67.7344 19.897 68.1759 20.0486 68.769 20.0486C69.3625 20.0486 69.7972 19.897 70.0738 19.5939C70.3642 19.2774 70.5088 18.8819 70.5088 18.4075C70.5088 17.9197 70.3642 17.5243 70.0738 17.2212C69.7972 16.9048 69.3625 16.7466 68.769 16.7466C68.1759 16.7466 67.7344 16.9048 67.4443 17.2212C67.1677 17.5243 67.0292 17.9197 67.0292 18.4075C67.0292 18.8819 67.1677 19.2774 67.4443 19.5939Z" fill="white"/>
<path d="M31.834 19.407C32.7302 19.8156 33.8308 20.0201 35.1356 20.0201C36.3617 20.0201 37.4159 19.829 38.2994 19.4465C39.1825 19.0644 39.8612 18.5304 40.3358 17.8452C40.8237 17.1463 41.0673 16.3357 41.0673 15.413C41.0673 14.5167 40.8371 13.7587 40.3756 13.1391C39.9272 12.5064 39.3014 12.0121 38.497 11.6563C37.6929 11.2871 36.7637 11.0565 35.7091 10.9643L34.6019 10.8654C33.9428 10.8126 33.4683 10.6348 33.1783 10.3315C32.8883 10.0284 32.7432 9.67239 32.7432 9.26388C32.7432 8.94737 32.8226 8.65748 32.9804 8.39384C33.1388 8.11698 33.3759 7.89953 33.6923 7.74129C34.0219 7.58319 34.4239 7.50408 34.8985 7.50408C35.3992 7.50408 35.8146 7.59625 36.1441 7.78091C36.2167 7.81994 36.2856 7.86165 36.3502 7.9059L36.3659 7.91688C36.3901 7.9336 36.4139 7.95094 36.4371 7.96845C36.6373 8.12146 36.7967 8.30279 36.9153 8.51243C37.0864 8.80252 37.1726 9.12537 37.1726 9.48133H40.3358C40.3358 8.53219 40.1182 7.70834 39.6835 7.00977C39.2485 6.29798 38.6224 5.75095 37.8052 5.36856C37.0008 4.97312 36.0321 4.77539 34.8985 4.77539C33.8174 4.77539 32.8817 4.96005 32.0907 5.32908C31.3 5.68504 30.6804 6.19911 30.2323 6.87126C29.797 7.54357 29.5795 8.34116 29.5795 9.26388C29.5795 10.5424 30.0083 11.5705 30.865 12.3484C31.7216 13.1261 32.8687 13.5742 34.3054 13.6928L35.393 13.7917C36.2758 13.8708 36.9153 14.0488 37.3108 14.3255C37.706 14.5891 37.9039 14.9516 37.9039 15.413C37.9039 15.625 37.8693 15.8239 37.7997 16.0097C37.7481 16.1475 37.6775 16.2782 37.5877 16.4016C37.3764 16.6786 37.0668 16.8958 36.6582 17.0542C36.2496 17.2123 35.7421 17.2913 35.1356 17.2913C34.4635 17.2913 33.9164 17.1992 33.4948 17.0147C33.0728 16.8167 32.7566 16.5597 32.5453 16.2436C32.3477 15.927 32.2491 15.5844 32.2491 15.2152H29.1052C29.1052 16.1511 29.3358 16.9817 29.797 17.7067C30.2585 18.4184 30.9375 18.9854 31.834 19.407Z" fill="white"/>
<path d="M74.6572 19.407C75.5534 19.8156 76.654 20.0201 77.9588 20.0201C79.1848 20.0201 80.2391 19.829 81.1226 19.4465C82.0057 19.0644 82.6844 18.5304 83.1589 17.8452C83.6469 17.1463 83.8905 16.3357 83.8905 15.413C83.8905 14.5167 83.6603 13.7587 83.1988 13.1391C82.7504 12.5064 82.1246 12.0121 81.3202 11.6563C80.5161 11.2871 79.5869 11.0565 78.5323 10.9643L77.4251 10.8654C76.766 10.8126 76.2915 10.6348 76.0015 10.3315C75.7114 10.0284 75.5664 9.67239 75.5664 9.26388C75.5664 8.94737 75.6458 8.65748 75.8035 8.39384C75.9619 8.11698 76.199 7.89953 76.5155 7.74129C76.8451 7.58319 77.2471 7.50408 77.7217 7.50408C78.2223 7.50408 78.6378 7.59625 78.9673 7.78091C79.0398 7.81994 79.1087 7.86165 79.1734 7.9059L79.1891 7.91688C79.2133 7.9336 79.2371 7.95094 79.2603 7.96845C79.4605 8.12146 79.6199 8.30279 79.7384 8.51243C79.9096 8.80252 79.9958 9.12537 79.9958 9.48133H83.1589C83.1589 8.53219 82.9414 7.70834 82.5067 7.00977C82.0717 6.29798 81.4456 5.75095 80.6284 5.36856C79.824 4.97312 78.8553 4.77539 77.7217 4.77539C76.6406 4.77539 75.7049 4.96005 74.9139 5.32908C74.1232 5.68504 73.5036 6.19911 73.0555 6.87126C72.6201 7.54357 72.4026 8.34116 72.4026 9.26388C72.4026 10.5424 72.8315 11.5705 73.6881 12.3484C74.5448 13.1261 75.6918 13.5742 77.1286 13.6928L78.2161 13.7917C79.0989 13.8708 79.7384 14.0488 80.134 14.3255C80.5291 14.5891 80.7271 14.9516 80.7271 15.413C80.7271 15.625 80.6924 15.8239 80.6229 16.0097C80.5713 16.1475 80.5007 16.2782 80.4109 16.4016C80.1996 16.6786 79.89 16.8958 79.4814 17.0542C79.0728 17.2123 78.5653 17.2913 77.9588 17.2913C77.2866 17.2913 76.7396 17.1992 76.3179 17.0147C75.896 16.8167 75.5798 16.5597 75.3685 16.2436C75.1709 15.927 75.0723 15.5844 75.0723 15.2152H71.9284C71.9284 16.1511 72.159 16.9817 72.6202 17.7067C73.0816 18.4184 73.7606 18.9854 74.6572 19.407Z" fill="white"/>
<path d="M53.0691 19.7827C51.975 19.7827 51.0919 19.651 50.4197 19.3871C49.7472 19.1105 49.2531 18.6559 48.9366 18.0233C48.6335 17.3772 48.482 16.5072 48.482 15.413V11.1224H46.8408V8.8091H48.482V5.88281H51.4279V8.8091H54.5917V11.1224H51.4279V15.5318C51.4279 16.0458 51.5599 16.4412 51.8235 16.7178C52.1001 16.9817 52.4891 17.1133 52.9901 17.1133H54.5917V19.7827H53.0691Z" fill="white"/>
<path d="M102.325 19.7827C101.231 19.7827 100.348 19.651 99.6758 19.3871C99.0033 19.1105 98.5091 18.6559 98.1927 18.0233C97.8896 17.3772 97.738 16.5072 97.738 15.413V11.1224H96.0969V8.8091H97.738V5.88281H100.684V8.8091H103.848V11.1224H100.684V15.5318C100.684 16.0458 100.816 16.4412 101.079 16.7178C101.356 16.9817 101.745 17.1133 102.246 17.1133H103.848V19.7827H102.325Z" fill="white"/>
<path fill-rule="evenodd" clip-rule="evenodd" d="M58.4006 19.5455C59.1122 19.862 59.9297 20.0201 60.8524 20.0201C61.7616 20.0201 62.566 19.862 63.2646 19.5455C63.9632 19.229 64.5433 18.7875 65.0044 18.2208C65.4659 17.6538 65.7759 17.0081 65.9336 16.2831H63.0272C62.8956 16.6126 62.6451 16.8893 62.276 17.1133C61.9069 17.3377 61.4321 17.4497 60.8524 17.4497C60.4931 17.4497 60.172 17.4073 59.8892 17.322C59.674 17.2573 59.481 17.1682 59.3101 17.0542C58.9146 16.7906 58.6246 16.4212 58.4401 15.947C58.3888 15.8118 58.345 15.6704 58.3081 15.5232C58.2706 15.374 58.2402 15.2188 58.2173 15.0572H66.1315V13.9894C66.1315 13.0008 65.9206 12.0913 65.4989 11.2609C65.0769 10.4171 64.4639 9.73832 63.6601 9.22425C62.8691 8.69698 61.8936 8.43335 60.7335 8.43335C59.8503 8.43335 59.0593 8.59159 58.3607 8.90793C57.6758 9.21102 57.1023 9.62623 56.6408 10.1535C56.1797 10.6808 55.8237 11.2806 55.5728 11.9529C55.3357 12.6119 55.2172 13.3039 55.2172 14.0289V14.4244C55.2172 15.1231 55.3357 15.8084 55.5728 16.4807C55.8237 17.1398 56.1797 17.7394 56.6408 18.2799C57.1154 18.8074 57.7016 19.229 58.4006 19.5455ZM58.2719 13.1021C58.2807 13.0602 58.2898 13.0189 58.3 12.9783C58.3274 12.8666 58.3591 12.7594 58.395 12.6571C58.4153 12.5988 58.4368 12.542 58.46 12.4867C58.6576 11.999 58.9476 11.6299 59.3297 11.3795C59.4728 11.2859 59.6276 11.2098 59.7938 11.1512C60.0734 11.053 60.3869 11.0038 60.7335 11.0038C61.2743 11.0038 61.7221 11.1291 62.0781 11.3795C62.4471 11.6167 62.7241 11.966 62.9086 12.4274C62.9237 12.4646 62.9377 12.5025 62.9514 12.5409C62.9733 12.602 62.9936 12.6647 63.0125 12.729C63.0403 12.8247 63.0648 12.9237 63.0863 13.0261C63.102 13.1016 63.1154 13.1788 63.1275 13.2579H58.2415C58.2506 13.205 58.2608 13.1531 58.2719 13.1021Z" fill="white"/>
<path fill-rule="evenodd" clip-rule="evenodd" d="M87.8492 19.5455C88.5608 19.862 89.3783 20.0201 90.301 20.0201C91.2102 20.0201 92.0146 19.862 92.7132 19.5455C93.4118 19.229 93.9919 18.7875 94.453 18.2208C94.9145 17.6538 95.2245 17.0081 95.3822 16.2831H92.4758C92.3442 16.6126 92.0937 16.8893 91.7246 17.1133C91.3556 17.3377 90.8807 17.4497 90.301 17.4497C89.9417 17.4497 89.6206 17.4073 89.3378 17.322C89.1226 17.2573 88.9296 17.1682 88.7587 17.0542C88.3632 16.7906 88.0732 16.4212 87.8887 15.947C87.8374 15.8118 87.7936 15.6704 87.7567 15.5232C87.7192 15.374 87.6888 15.2188 87.6659 15.0572H95.5802V13.9894C95.5802 13.0008 95.3692 12.0913 94.9475 11.2609C94.5256 10.4171 93.9125 9.73832 93.1088 9.22425C92.3177 8.69698 91.3422 8.43335 90.1821 8.43335C89.2989 8.43335 88.5079 8.59159 87.8093 8.90793C87.1244 9.21102 86.5509 9.62623 86.0894 10.1535C85.6283 10.6808 85.2723 11.2806 85.0214 11.9529C84.7843 12.6119 84.6658 13.3039 84.6658 14.0289V14.4244C84.6658 15.1231 84.7843 15.8084 85.0214 16.4807C85.2723 17.1398 85.6283 17.7394 86.0894 18.2799C86.564 18.8074 87.1502 19.229 87.8492 19.5455ZM87.7205 13.1021C87.7293 13.0602 87.7384 13.0189 87.7486 12.9783C87.776 12.8666 87.8077 12.7594 87.8436 12.6571C87.8639 12.5988 87.8854 12.542 87.9086 12.4867C88.1062 11.999 88.3962 11.6299 88.7783 11.3795C88.9214 11.2859 89.0762 11.2098 89.2424 11.1512C89.522 11.053 89.8356 11.0038 90.1821 11.0038C90.7229 11.0038 91.1707 11.1291 91.5267 11.3795C91.8958 11.6167 92.1727 11.966 92.3572 12.4274C92.3723 12.4646 92.3863 12.5025 92.4 12.5409C92.4219 12.602 92.4422 12.6647 92.4611 12.729C92.4889 12.8247 92.5134 12.9237 92.5349 13.0261C92.5506 13.1016 92.564 13.1788 92.5761 13.2579H87.6901C87.6993 13.205 87.7094 13.1531 87.7205 13.1021Z" fill="white"/>
</svg>
